<svg id="Capa_1" enable-background="new 0 0 512 512" height="512" viewBox="0 0 512 512" width="512" xmlns="http://www.w3.org/2000/svg">
<g><path fill="#fff" d="m507.607 103.389-10.607-10.607 7.071-7.071c5.858-5.858 5.858-15.355 0-21.213l-56.568-56.569c-5.857-5.858-15.355-5.858-21.213 0l-7.071 7.071-10.608-10.606c-5.857-5.858-15.355-5.858-21.213 0s-5.858 15.355 0 21.213l10.607 10.607-14.143 14.143-10.607-10.607c-5.857-5.858-15.355-5.858-21.213 0s-5.858 15.355 0 21.213l10.607 10.607-7.071 7.071c-4.616 4.616-5.578 11.486-2.919 17.061l-96.657 96.657c-13.375-7.899-27.303-13.586-41.098-16.652-29.224-6.494-54.667-.722-71.642 16.255-10.996 10.996-17.424 25.972-18.588 43.31-.285 4.246-2.333 8.048-5.766 10.707-3.47 2.688-7.912 3.769-12.184 2.966-34.13-6.412-63.844.973-83.67 20.798-27.85 27.85-30.67 75.459-7.361 124.249 9.049 18.944 21.545 36.457 37.141 52.052l13.123 13.123c15.595 15.595 33.107 28.091 52.051 37.141 21.972 10.495 43.701 15.692 63.496 15.692 24.164 0 45.445-7.746 60.754-23.055 19.825-19.826 27.211-49.541 20.798-83.67-.803-4.272.278-8.713 2.966-12.184 2.659-3.433 6.461-5.481 10.706-5.766 17.338-1.165 32.315-7.592 43.311-18.588 16.977-16.976 22.749-42.419 16.255-71.642-3.066-13.795-8.753-27.722-16.652-41.098l96.657-96.657c2.037.972 4.243 1.474 6.455 1.474 3.839 0 7.678-1.464 10.606-4.394l7.071-7.071 10.607 10.607c2.929 2.929 6.768 4.394 10.606 4.394s7.678-1.464 10.606-4.394c5.858-5.858 5.858-15.355 0-21.213l-10.607-10.607 14.143-14.143 10.607 10.607c2.929 2.929 6.768 4.394 10.606 4.394s7.678-1.464 10.606-4.394c5.859-5.856 5.859-15.353.002-21.211zm-208.781 244.135c-5.868 5.868-13.979 9.188-24.108 9.869-12.733.855-24.547 7.172-32.414 17.33-7.935 10.245-11.117 23.4-8.732 36.094 4.528 24.096.08 44.309-12.527 56.916-18.597 18.597-53.122 19.173-90.104 1.504-15.863-7.578-30.59-18.103-43.771-31.284l-13.123-13.123c-13.181-13.181-23.706-27.907-31.284-43.771-17.668-36.981-17.091-71.507 1.504-90.104 9.391-9.391 22.998-14.254 39.29-14.254 5.581 0 11.479.571 17.626 1.727 12.692 2.384 25.848-.798 36.093-8.732 10.158-7.867 16.474-19.681 17.33-32.414.68-10.129 4.001-18.24 9.869-24.108 12.772-12.774 33.001-10.61 43.921-8.182 21.29 4.731 43.36 17.682 62.145 36.466s31.735 40.855 36.466 62.145c2.428 10.92 4.592 31.148-8.181 43.921zm3.116-116.253c-3.217-3.774-6.617-7.456-10.187-11.026-3.57-3.571-7.252-6.97-11.026-10.187l92.527-92.527 21.213 21.213zm120.812-106.669-35.355-35.355 49.498-49.498 35.355 35.355z"/><path d="m107.405 354.595c-5.857-5.858-15.355-5.858-21.213 0s-5.858 15.355 0 21.213l50 50c2.929 2.929 6.768 4.394 10.606 4.394s7.678-1.464 10.606-4.394c5.858-5.858 5.858-15.355 0-21.213z"/><path d="m210.438 246.562c-14.691 0-28.503 5.721-38.891 16.109s-16.109 24.2-16.109 38.891 5.721 28.503 16.109 38.891 24.2 16.109 38.891 16.109 28.502-5.721 38.891-16.109c10.388-10.388 16.109-24.2 16.109-38.891s-5.721-28.502-16.109-38.891-24.2-16.109-38.891-16.109zm17.678 72.677c-4.722 4.722-11 7.323-17.678 7.323s-12.956-2.601-17.678-7.323-7.322-11-7.322-17.677 2.601-12.956 7.323-17.678 11-7.322 17.677-7.322 12.956 2.601 17.678 7.322c4.722 4.722 7.322 11 7.322 17.678s-2.601 12.956-7.322 17.677z"/></g></svg>