<svg id="Capa_1" enable-background="new 0 0 512 512" height="512" viewBox="0 0 512 512" width="512" xmlns="http://www.w3.org/2000/svg">
<g><path fill="#8c8c8c" d="m512 127.5c0-34.057-13.263-66.074-37.344-90.156-24.082-24.081-56.1-37.344-90.156-37.344s-66.074 13.263-90.156 37.344c-22.977 22.977-36.199 53.796-37.255 86.012-6.702-.88-13.725 1.224-18.863 6.363-1.861 1.862-3.303 3.979-4.375 6.231l-16.935-16.935c-2.929-2.928-7.678-2.928-10.606 0l-127.28 127.278c-1.407 1.407-2.197 3.314-2.197 5.304s.79 3.896 2.197 5.304l38.965 38.965-116.268 140.207c-2.472 2.98-2.268 7.353.47 10.091l63.64 63.64c1.458 1.457 3.377 2.196 5.305 2.196 1.693 0 3.392-.571 4.786-1.727l140.207-116.268 38.966 38.966c1.406 1.406 3.314 2.196 5.303 2.196s3.897-.79 5.303-2.196l127.279-127.279c2.929-2.93 2.929-7.678 0-10.607l-16.935-16.935c2.252-1.072 4.37-2.514 6.232-4.375 5.137-5.137 7.242-12.159 6.362-18.86 32.215-1.055 63.036-14.281 86.012-37.257 24.081-24.084 37.343-56.101 37.343-90.158zm-212.168-74.061 15.726 15.725c1.464 1.464 3.384 2.196 5.303 2.196s3.839-.732 5.303-2.196c2.929-2.93 2.929-7.678 0-10.607l-15.732-15.731c20.511-17.994 46.532-27.826 74.068-27.826 30.05 0 58.301 11.702 79.55 32.951 21.248 21.248 32.95 49.499 32.95 79.549 0 27.536-9.832 53.557-27.826 74.068l-121.797-121.798c-2.929-2.928-7.678-2.928-10.606 0-2.929 2.93-2.929 7.678 0 10.607l121.791 121.791c-21.548 18.845-49.575 28.819-78.325 27.74l-108.145-108.145c-1.081-28.749 8.896-56.777 27.74-78.324zm-228.22 440.926-53.977-53.977 9.616-11.596 55.957 55.957zm23.193-19.233-57.937-57.937 91.78-110.677 76.833 76.833zm165.598-58.071-165.463-165.464 116.673-116.672 165.463 165.463zm-11.574-266.133c-2.919-2.925-2.918-7.68.004-10.602 2.925-2.926 7.684-2.924 10.607 0l112.235 112.234c2.924 2.925 2.924 7.684 0 10.607-2.923 2.924-7.682 2.925-10.607 0z"/></g></svg>