<svg id="Layer_1" enable-background="new 0 0 480 480" height="512" viewBox="0 0 480 480" width="512" xmlns="http://www.w3.org/2000/svg">
<path fill="#fff" d="m175.422 170c0 18.748 15.252 34 34 34 4.418 0 8 3.582 8 8s-3.582 8-8 8c-27.57 0-50-22.43-50-50s22.43-50 50-50 50 22.43 50 50c0 4.418-3.582 8-8 8s-8-3.582-8-8c0-18.748-15.252-34-34-34-18.747 0-34 15.252-34 34zm34 158c27.019 0 49 21.981 49 49s-21.981 49-49 49-49-21.981-49-49 21.982-49 49-49zm0 16c-18.196 0-33 14.804-33 33s14.804 33 33 33 33-14.804 33-33-14.803-33-33-33zm160-133.667c-4.418 0-8 3.582-8 8v221.667c0 13.233-10.767 24-24 24h-256c-13.233 0-24-10.767-24-24v-400c0-13.233 10.767-24 24-24h256c13.233 0 24 10.767 24 24 0 4.418 3.582 8 8 8s8-3.582 8-8c0-22.056-17.944-40-40-40h-256c-22.056 0-40 17.944-40 40v400c0 22.056 17.944 40 40 40h256c22.056 0 40-17.944 40-40v-221.667c0-4.418-3.582-8-8-8zm-41.741-19.859c.749-4.354-2.174-8.492-6.527-9.24-4.35-.749-8.491 2.173-9.24 6.527-8.595 49.97-51.699 86.239-102.492 86.239-57.346 0-104-46.654-104-104 0-83.349 93.561-132.575 162.142-86.243 3.66 2.473 8.633 1.512 11.107-2.15 2.474-3.661 1.511-8.634-2.15-11.107-19.851-13.411-43.053-20.5-67.099-20.5-66.168 0-120 53.832-120 120s53.832 120 120 120c59.05 0 108.506-42.811 118.259-99.526zm57.085-21.179c0 8.279-6.691 15-15 15-8.293 0-14.999-6.708-14.999-15 0-8.291 6.707-15 14.999-15 8.29 0 15 6.706 15 15zm-51.77-36.77c-3.124 3.125-3.124 8.189 0 11.314 3.125 3.123 8.189 3.123 11.314 0 14.069-14.069 36.84-14.072 50.911-.001 3.124 3.124 8.189 3.126 11.313.001 3.125-3.124 3.125-8.189.001-11.313-20.321-20.324-53.213-20.325-73.539-.001zm103.239-29.698c-36.74-36.738-96.195-36.739-132.937 0-3.124 3.125-3.124 8.19 0 11.314 3.125 3.123 8.189 3.123 11.314 0 30.48-30.484 79.823-30.489 110.308 0 3.126 3.124 8.189 3.123 11.314 0s3.125-8.189.001-11.314z"/></svg>