<svg id="Capa_1" enable-background="new 0 0 512 512" height="512" viewBox="0 0 512 512" width="512" xmlns="http://www.w3.org/2000/svg">
<g><path fill="#fff" d="m512 256c0-77.548-46.458-144.445-113-174.334v-25.166h-399v399h399v-25.166c66.542-29.889 113-96.786 113-174.334zm-143 11.295-158.205 158.205h-180.795v-180.795l158.205-158.205h180.795zm-223.221-180.795-115.779 115.779v-115.779zm107.442 339 115.779-115.779v115.779zm145.779-310.3c49.457 27.507 83 80.306 83 140.8s-33.543 113.293-83 140.8z"/><path d="m201.44 252.691c-7.453-3.799-15.877-5.957-24.8-5.957-30.217 0-54.8 24.583-54.8 54.8s24.583 54.8 54.8 54.8 54.8-24.583 54.8-54.8v-115.867h30.719v-30h-60.719zm-24.799 73.642c-13.675 0-24.8-11.125-24.8-24.8s11.125-24.8 24.8-24.8 24.8 11.125 24.8 24.8-11.126 24.8-24.8 24.8z"/></g></svg>