<svg id="Capa_1" enable-background="new 0 0 512 512" height="512" viewBox="0 0 512 512" width="512" xmlns="http://www.w3.org/2000/svg">
<g id="XMLID_755_"><g id="XMLID_772_">
<path fill="#fff" id="XMLID_1059_" d="m54 262h404c5.522 0 10-4.477 10-10v-44c0-5.523-4.478-10-10-10h-404c-5.522 0-10 4.477-10 10v44c0 5.523 4.478 10 10 10zm192-20h-81v-24h81zm20-24h81v24h-81zm182 24h-81v-24h81zm-384-24h81v24h-81z"/>
<path fill="#fff" id="XMLID_1266_" d="m110 282c-38.598 0-70 31.402-70 70s31.402 70 70 70 70-31.402 70-70-31.402-70-70-70zm0 120c-27.57 0-50-22.43-50-50s22.43-50 50-50 50 22.43 50 50-22.43 50-50 50z"/>
<path fill="#fff" id="XMLID_1302_" d="m110 322c-16.542 0-30 13.458-30 30s13.458 30 30 30 30-13.458 30-30-13.458-30-30-30zm0 40c-5.514 0-10-4.486-10-10s4.486-10 10-10 10 4.486 10 10-4.486 10-10 10z"/>
<path fill="#fff" id="XMLID_1305_" d="m402 282c-38.598 0-70 31.402-70 70s31.402 70 70 70 70-31.402 70-70-31.402-70-70-70zm0 120c-27.57 0-50-22.43-50-50s22.43-50 50-50 50 22.43 50 50-22.43 50-50 50z"/>
<path fill="#fff" id="XMLID_1313_" d="m402 322c-16.542 0-30 13.458-30 30s13.458 30 30 30 30-13.458 30-30-13.458-30-30-30zm0 40c-5.514 0-10-4.486-10-10s4.486-10 10-10 10 4.486 10 10-4.486 10-10 10z"/>
<path fill="#fff" id="XMLID_1322_" d="m302 289.667h-92c-5.522 0-10 4.477-10 10v88c0 5.523 4.478 10 10 10h92c5.522 0 10-4.477 10-10v-88c0-5.523-4.478-10-10-10zm-10 20v24h-72v-24zm-72 68v-24h72v24z"/>
<path fill="#fff" id="XMLID_1559_" d="m458 148.153v-58.153c0-27.57-22.43-50-50-50h-304c-27.57 0-50 22.43-50 50v58.153c-30.121 2.064-54 27.211-54 57.847v208c0 31.981 26.019 58 58 58h396c31.981 0 58-26.019 58-58v-208c0-30.636-23.879-55.783-54-57.847zm-354-88.153h304c16.542 0 30 13.458 30 30v58h-24v-54c0-5.523-4.478-10-10-10h-296c-5.522 0-10 4.477-10 10v54h-24v-58c0-16.542 13.458-30 30-30zm388 354c0 20.953-17.047 38-38 38h-396c-20.953 0-38-17.047-38-38v-208c0-20.953 17.047-38 38-38h153.131c5.522 0 10-4.477 10-10s-4.478-10-10-10h-93.131v-44h276v44h-92.865c-5.522 0-10 4.477-10 10s4.478 10 10 10h152.865c20.953 0 38 17.047 38 38z"/>
<path fill="#fff" id="XMLID_1888_" d="m256.13 168c2.63 0 5.21-1.07 7.07-2.93 1.859-1.86 2.93-4.44 2.93-7.07s-1.07-5.21-2.93-7.07-4.44-2.93-7.07-2.93c-2.64 0-5.22 1.07-7.07 2.93-1.859 1.86-2.93 4.44-2.93 7.07s1.07 5.21 2.93 7.07c1.85 1.86 4.43 2.93 7.07 2.93z"/></g></g></svg>